HIERARCHY
ROOT Hips
{
  OFFSET 119.563 100.83 105.277
  CHANNELS 6 Xposition Yposition Zposition Zrotation Xrotation Yrotation
  JOINT RightUpLeg
  {
    OFFSET -8.9458 -8.66707 0.101652
    CHANNELS 3 Zrotation Xrotation Yrotation
    JOINT RightLeg
    {
      OFFSET 0 -44.4227 1.3727
      CHANNELS 3 Zrotation Xrotation Yrotation
      JOINT RightFoot
      {
        OFFSET 0.253549 -42.0924 -1.46059
        CHANNELS 3 Zrotation Xrotation Yrotation
        JOINT RightToes
        {
          OFFSET 0.04 -4.41509 8.4991
          CHANNELS 3 Zrotation Xrotation Yrotation
          End Site
          {
            OFFSET -0.08 -0.137448 9.77979
          }
        }
      }
    }
  }
  JOINT Spine
  {
    OFFSET 0 11.8905 0
    CHANNELS 3 Zrotation Xrotation Yrotation
    JOINT Spine1
    {
      OFFSET 0 25.6574 0.127663
      CHANNELS 3 Zrotation Xrotation Yrotation
      JOINT HEad
      {
        OFFSET 0 8.73416 0.011341
        CHANNELS 3 Zrotation Xrotation Yrotation
        End Site
        {
          OFFSET -0.29 12.7742 2.51395
        }
      }
      JOINT LeftShoulder1
      {
        OFFSET 8.99 -0.362252 -0.22
        CHANNELS 3 Zrotation Xrotation Yrotation
        JOINT LeftArm
        {
          OFFSET 10.2827 -0.00338 0.322123
          CHANNELS 3 Zrotation Xrotation Yrotation
          JOINT LeftForeArm
          {
            OFFSET 32.7669 0.099144 -1.42434
            CHANNELS 3 Zrotation Xrotation Yrotation
            JOINT LeftHand
            {
              OFFSET 27.5643 0.085362 1.02216
              CHANNELS 3 Zrotation Xrotation Yrotation
              End Site
              {
                OFFSET 16.7443 -0.6 1.50291
              }
            }
          }
        }
      }
      JOINT RightShoulder
      {
        OFFSET -8.99 -0.362252 -0.22
        CHANNELS 3 Zrotation Xrotation Yrotation
        JOINT RightArm
        {
          OFFSET -10.2827 -0.00338 0.322123
          CHANNELS 3 Zrotation Xrotation Yrotation
          JOINT RightForeArm
          {
            OFFSET -32.8971 0.099144 -1.42434
            CHANNELS 3 Zrotation Xrotation Yrotation
            JOINT RightHand
            {
              OFFSET -27.4921 0.085362 1.02216
              CHANNELS 3 Zrotation Xrotation Yrotation
              End Site
              {
                OFFSET -16.6312 -0.6 1.50291
              }
            }
          }
        }
      }
    }
  }
  JOINT LeftUpLeg
  {
    OFFSET 8.9458 -8.66707 0.101652
    CHANNELS 3 Zrotation Xrotation Yrotation
    JOINT LeftLeg
    {
      OFFSET 0 -44.4227 1.3727
      CHANNELS 3 Zrotation Xrotation Yrotation
      JOINT LeftFoot
      {
        OFFSET -0.253549 -42.0924 -1.46059
        CHANNELS 3 Zrotation Xrotation Yrotation
        JOINT LeftToes
        {
          OFFSET -0.04 -4.41509 8.4991
          CHANNELS 3 Zrotation Xrotation Yrotation
          End Site
          {
            OFFSET 0.08 -0.047448 9.77979
          }
        }
      }
    }
  }
}
MOTION
Frames:	8
Frame Time:	0.0166667
43.175 81.3706 123.964 1.12482 4.1147 -158.514 -4.16259 -47.9682 -4.14427 -51.3748 53.4491 30.7828 -3.97096 -3.73689 -0.821243 0.0462048 0.000533403 0.662642 9.08352 36.1845 1.19299 0.0388761 0.07274 -1.18993e-006 12.6264 1.28346 -17.3395 -3.53113e-031 6.36111e-015 3.18055e-015 -94.5097 -30.8686 -54.469 -111.618 48.6999 -9.14153 6.27985 31.2164 -6.1706 -9.15845 31.8335 13.6362 -153.34 -35.5697 147.828 127.997 41.2236 -4.18393 -4.28803 26.922 1.51221 30.4065 -45.9865 28.1944 54.9308 62.5661 -67.1992 -46.1686 7.36508 -0.149516 -1.32753e-009 1.55993e-007 -4.87458e-009 
42.7864 81.3822 123.975 1.12482 4.1147 -158.514 -4.42276 -47.7089 -4.19367 -51.2527 53.1899 30.6659 -3.62868 -3.68742 -0.812472 0.0462048 0.000533403 0.662642 9.08352 36.1845 1.19299 0.0388761 0.07274 -1.18993e-006 12.6264 1.28346 -17.3395 -3.53113e-031 6.36111e-015 3.18055e-015 -94.5097 -30.8686 -54.469 -111.618 48.6999 -9.14153 6.27985 31.2164 -6.1706 -9.15845 31.8335 13.6362 -153.34 -35.5697 147.828 127.997 41.2236 -4.18393 -4.28803 26.922 1.51221 30.4744 -46.0485 28.7794 55.6079 62.7474 -67.8305 -45.5974 7.32602 -0.407385 -1.32753e-009 1.55993e-007 -4.87459e-009 
41.6982 81.4147 124.007 1.12482 4.1147 -158.514 -5.15148 -46.9686 -4.33318 -50.8806 52.4469 30.306 -2.6802 -3.53773 -0.784792 0.0462048 0.000533403 0.662642 9.08352 36.1845 1.19299 0.0388761 0.07274 -1.18993e-006 12.6264 1.28346 -17.3395 -3.53113e-031 6.36111e-015 3.18055e-015 -94.5097 -30.8686 -54.469 -111.618 48.6999 -9.14153 6.27985 31.2164 -6.1706 -9.15845 31.8335 13.6362 -153.34 -35.5697 147.828 127.997 41.2236 -4.18393 -4.28803 26.922 1.51221 30.6542 -46.1928 30.3934 57.496 63.2227 -69.5756 -44.0085 7.19747 -1.12239 -1.32753e-009 1.55993e-007 -4.87459e-009 
40.0271 81.4647 124.057 1.12482 4.1147 -158.514 -6.27084 -45.7911 -4.54904 -50.2258 51.2564 29.6617 -1.2528 -3.27392 -0.733845 0.0462048 0.000533403 0.662642 9.08352 36.1845 1.19299 0.0388761 0.07274 -1.18993e-006 12.6264 1.28346 -17.3395 -1.59028e-015 0 -0 -94.5097 -30.8686 -54.469 -111.618 48.6999 -9.14153 6.27985 31.2164 -6.1706 -9.15845 31.8335 13.6362 -153.34 -35.5697 147.828 127.997 41.2236 -4.18393 -4.28803 26.922 1.51221 30.8917 -46.3331 32.7952 60.3609 63.8647 -72.1796 -41.6036 6.94388 -2.19921 -1.32752e-009 1.55993e-007 -4.8746e-009 
37.9881 75.7605 124.922 1.50469 3.20209 -162.944 -4.87938 -54.6147 0.0976342 -59.6282 55.9081 39.257 -1.60811 -1.66221 -0.357716 0.0462048 0.000533403 0.662642 10.6428 41.3671 1.92734 0.0409799 0.0625998 -1.18993e-006 13.7562 -1.14683 -17.3842 -1.59028e-015 -3.18055e-015 1.59028e-015 -96.655 -29.9774 -55.3001 -108.945 51.6401 -13.069 2.3009 26.8122 -5.12714 -3.97459 27.8162 11.8915 -159.773 -36.8473 148.676 127.834 42.7065 -3.9842 -8.56093 25.2485 5.06498 39.2944 -51.1534 40.6676 86.0217 68.1039 -95.1764 -45.5555 7.79423 -2.3647 -1.32752e-009 1.55993e-007 -4.8746e-009 
35.4699 69.6882 125.852 1.88001 2.56148 -166.912 -4.01778 -63.9757 3.25887 -71.5887 59.0702 53.3276 -1.801 -0.00825905 0.340183 0.0462048 0.000533403 0.662642 13.1875 46.854 0.786521 0.0427547 0.0523098 -1.18993e-006 15.4298 -3.76713 -17.0887 -1.59028e-015 0 -1.59028e-015 -101.105 -29.5922 -58.2312 -115.146 52.8632 -11.337 8.75266 32.8889 -6.36559 1.01284 23.533 10.4752 -167.563 -38.5435 148.844 127.975 43.9066 -3.59099 -5.64997 27.8494 4.45466 48.4676 -55.3912 47.8863 116.86 67.6601 -123.466 -49.8158 7.84653 -2.24718 -1.32753e-009 1.55993e-007 -4.87459e-009 
32.5228 63.7757 126.824 2.2605 2.13831 -170.449 -6.20299 -73.2953 2.54438 -83.2892 60.3976 69.0609 -2.3585 1.57164 1.34215 0.0462048 0.000533403 0.662642 17.1368 52.321 -2.51727 0.0443255 0.0426198 -1.18993e-006 17.6544 -6.67501 -16.3442 7.95139e-016 -3.18055e-015 1.59028e-015 -106.964 -29.4946 -62.5487 -118.945 53.7304 -10.4875 8.02973 31.4051 -3.73711 5.93128 19.0426 8.90976 -177.142 -40.7147 147.525 128.209 44.8207 -2.75907 -8.21268 26.9865 6.27456 56.9561 -59.0625 53.5088 140.574 62.6086 -145.002 -54.8729 6.75209 -1.95932 -1.32752e-009 1.55993e-007 -4.8746e-009 
29.3772 58.0123 127.623 2.66096 1.91286 -173.611 -23.6528 -81.8046 -14.11 -92.5893 62.2636 84.2774 -5.31157 3.15247 2.52778 0.0462048 0.000533403 0.662642 23.1898 57.2439 -8.59428 0.0462359 0.0177398 -1.18993e-006 18.9942 -9.03347 -14.5831 5.96354e-016 -3.18055e-015 1.98785e-016 -113.531 -29.7807 -67.1332 -122.193 54.5935 -9.70097 -3.98864 25.7002 -10.905 1.1841 16.6245 16.946 -173.839 -39.1207 153.766 128.632 45.4901 -1.52376 -6.68617 28.694 5.45962 63.423 -62.4304 56.7551 153.135 54.5693 -155.177 -62.2554 4.6024 -1.93938 -1.32753e-009 1.55993e-007 -4.87459e-009 
